<mxfile host="app.diagrams.net" agent="Mozilla/5.0 (Windows NT 10.0; Win64; x64) AppleWebKit/537.36 (KHTML, like Gecko) Chrome/140.0.0.0 Safari/537.36" version="28.2.3">
  <diagram name="Page-1" id="50LFlwL5chmXKYp5DiSf">
    <mxGraphModel dx="1188" dy="654" grid="1" gridSize="10" guides="1" tooltips="1" connect="1" arrows="1" fold="1" page="1" pageScale="1" pageWidth="827" pageHeight="1169" math="0" shadow="0">
      <root>
        <mxCell id="0" />
        <mxCell id="1" parent="0" />
        <mxCell id="2iuqWAaq_DwEEDqG-BNT-23" value="" style="rounded=1;whiteSpace=wrap;html=1;arcSize=6;" vertex="1" parent="1">
          <mxGeometry x="120" y="359" width="410" height="401" as="geometry" />
        </mxCell>
        <mxCell id="2iuqWAaq_DwEEDqG-BNT-1" style="edgeStyle=orthogonalEdgeStyle;rounded=0;orthogonalLoop=1;jettySize=auto;html=1;exitX=0.5;exitY=1;exitDx=0;exitDy=0;" edge="1" parent="1" source="2iuqWAaq_DwEEDqG-BNT-3" target="2iuqWAaq_DwEEDqG-BNT-8">
          <mxGeometry relative="1" as="geometry" />
        </mxCell>
        <mxCell id="2iuqWAaq_DwEEDqG-BNT-2" value="publish event payload" style="edgeLabel;html=1;align=center;verticalAlign=middle;resizable=0;points=[];" vertex="1" connectable="0" parent="2iuqWAaq_DwEEDqG-BNT-1">
          <mxGeometry x="-0.275" y="2" relative="1" as="geometry">
            <mxPoint x="58" as="offset" />
          </mxGeometry>
        </mxCell>
        <mxCell id="2iuqWAaq_DwEEDqG-BNT-3" value="" style="rounded=1;whiteSpace=wrap;html=1;" vertex="1" parent="1">
          <mxGeometry x="220" y="150" width="200" height="60" as="geometry" />
        </mxCell>
        <mxCell id="2iuqWAaq_DwEEDqG-BNT-4" value="" style="aspect=fixed;sketch=0;html=1;dashed=0;whitespace=wrap;verticalLabelPosition=bottom;verticalAlign=top;fillColor=#2875E2;strokeColor=#ffffff;points=[[0.005,0.63,0],[0.1,0.2,0],[0.9,0.2,0],[0.5,0,0],[0.995,0.63,0],[0.72,0.99,0],[0.5,1,0],[0.28,0.99,0]];shape=mxgraph.kubernetes.icon2;prIcon=api" vertex="1" parent="1">
          <mxGeometry x="230" y="156" width="50" height="48" as="geometry" />
        </mxCell>
        <mxCell id="2iuqWAaq_DwEEDqG-BNT-5" value="client application" style="text;html=1;align=center;verticalAlign=middle;resizable=0;points=[];autosize=1;strokeColor=none;fillColor=none;" vertex="1" parent="1">
          <mxGeometry x="304" y="165" width="110" height="30" as="geometry" />
        </mxCell>
        <mxCell id="2iuqWAaq_DwEEDqG-BNT-6" style="edgeStyle=orthogonalEdgeStyle;rounded=0;orthogonalLoop=1;jettySize=auto;html=1;" edge="1" parent="1" source="2iuqWAaq_DwEEDqG-BNT-8" target="2iuqWAaq_DwEEDqG-BNT-13">
          <mxGeometry relative="1" as="geometry" />
        </mxCell>
        <mxCell id="2iuqWAaq_DwEEDqG-BNT-7" value="pulls event payload" style="edgeLabel;html=1;align=center;verticalAlign=middle;resizable=0;points=[];" vertex="1" connectable="0" parent="2iuqWAaq_DwEEDqG-BNT-6">
          <mxGeometry x="0.1296" y="-3" relative="1" as="geometry">
            <mxPoint x="63" as="offset" />
          </mxGeometry>
        </mxCell>
        <mxCell id="2iuqWAaq_DwEEDqG-BNT-8" value="Pub/Sub" style="sketch=0;html=1;verticalAlign=top;labelPosition=center;verticalLabelPosition=bottom;align=center;spacingTop=-6;fontSize=11;fontStyle=1;fontColor=#999999;shape=image;aspect=fixed;imageAspect=0;image=data:image/svg+xml,PHN2ZyB4bWxucz0iaHR0cDovL3d3dy53My5vcmcvMjAwMC9zdmciIHhtbG5zOnY9Imh0dHBzOi8vdmVjdGEuaW8vbmFubyIgd2lkdGg9IjE4LjMxOTk5OTY5NDgyNDIyIiBoZWlnaHQ9IjIwLjAwMDAwMTkwNzM0ODYzMyIgdmlld0JveD0iMCAwIDE4LjMxOTk5OTY5NDgyNDIyIDIwLjAwMDAwMTkwNzM0ODYzMyI+JiN4YTsJPHN0eWxlIHR5cGU9InRleHQvY3NzIj4mI3hhOwkuc3Qwe2ZpbGw6IzY2OWRmNjt9JiN4YTsJLnN0MXtmaWxsOiM0Mjg1ZjQ7fSYjeGE7CS5zdDJ7ZmlsbDojYWVjYmZhO30mI3hhOwk8L3N0eWxlPiYjeGE7CTxkZWZzPiYjeGE7CQk8ZmlsdGVyIGlkPSJBIiB4PSI0LjY0IiB5PSI0LjE5IiB3aWR0aD0iMTQuNzMiIGhlaWdodD0iMTIuNzYiIGZpbHRlclVuaXRzPSJ1c2VyU3BhY2VPblVzZSIgY29sb3ItaW50ZXJwb2xhdGlvbi1maWx0ZXJzPSJzUkdCIj4mI3hhOwkJCTxmZUZsb29kIGZsb29kLWNvbG9yPSIjZmZmIi8+JiN4YTsJCQk8ZmVCbGVuZCBpbj0iU291cmNlR3JhcGhpYyIvPiYjeGE7CQk8L2ZpbHRlcj4mI3hhOwkJPG1hc2sgaWQ9IkIiIHg9IjQuNjQiIHk9IjQuMTkiIHdpZHRoPSIxNC43MyIgaGVpZ2h0PSIxMi43NiIgbWFza1VuaXRzPSJ1c2VyU3BhY2VPblVzZSI+JiN4YTsJCQk8Y2lyY2xlIGN4PSIxMiIgY3k9IjEyLjIzIiByPSIzLjU4IiBmaWx0ZXI9InVybCgjQSkiLz4mI3hhOwkJPC9tYXNrPiYjeGE7CTwvZGVmcz4mI3hhOwk8ZyBjbGFzcz0ic3QwIj4mI3hhOwkJPGNpcmNsZSBjeD0iMTYuMTMiIGN5PSI2LjIxIiByPSIxLjcyIi8+JiN4YTsJCTxjaXJjbGUgY3g9IjIuMTkiIGN5PSI2LjIxIiByPSIxLjcyIi8+JiN4YTsJCTxjaXJjbGUgY3g9IjkuMTYiIGN5PSIxOC4yOCIgcj0iMS43MiIvPiYjeGE7CTwvZz4mI3hhOwk8ZyBtYXNrPSJ1cmwoI0IpIiB0cmFuc2Zvcm09InRyYW5zbGF0ZSgtMi44NCAtMikiPiYjeGE7CQk8cGF0aCB0cmFuc2Zvcm09Im1hdHJpeCguNSAtLjg3IC44NyAuNSAtNC41OSAyMC41MykiIGQ9Ik0xNC42OSAxMC4yMmgxLjU5djguMDRoLTEuNTl6IiBjbGFzcz0ic3QxIi8+JiN4YTsJCTxwYXRoIHRyYW5zZm9ybT0icm90YXRlKDMzMCA4LjUyMyAxNC4yNDQpIiBkPSJNNC40OSAxMy40NWg4LjA0djEuNTlINC40OXoiIGNsYXNzPSJzdDEiLz4mI3hhOwkJPHBhdGggZD0iTTExLjIgNC4xOWgxLjU5djguMDRIMTEuMnoiIGNsYXNzPSJzdDEiLz4mI3hhOwk8L2c+JiN4YTsJPGcgY2xhc3M9InN0MiI+JiN4YTsJCTxjaXJjbGUgY3g9IjkuMTYiIGN5PSIxMC4yMyIgcj0iMi43OCIvPiYjeGE7CQk8Y2lyY2xlIGN4PSIyLjE5IiBjeT0iMTQuMjUiIHI9IjIuMTkiLz4mI3hhOwkJPGNpcmNsZSBjeD0iMTYuMTMiIGN5PSIxNC4yNSIgcj0iMi4xOSIvPiYjeGE7CQk8Y2lyY2xlIGN4PSI5LjE2IiBjeT0iMi4xOSIgcj0iMi4xOSIvPiYjeGE7CTwvZz4mI3hhOzwvc3ZnPg==;" vertex="1" parent="1">
          <mxGeometry x="301" y="270" width="38" height="42" as="geometry" />
        </mxCell>
        <mxCell id="2iuqWAaq_DwEEDqG-BNT-13" value="Dataflow" style="sketch=0;html=1;verticalAlign=top;labelPosition=center;verticalLabelPosition=bottom;align=center;spacingTop=-6;fontSize=11;fontStyle=1;fontColor=#999999;shape=image;aspect=fixed;imageAspect=0;image=data:image/svg+xml,PHN2ZyB4bWxucz0iaHR0cDovL3d3dy53My5vcmcvMjAwMC9zdmciIHhtbG5zOnY9Imh0dHBzOi8vdmVjdGEuaW8vbmFubyIgd2lkdGg9IjE0LjUxOTk5OTUwNDA4OTM1NSIgaGVpZ2h0PSIyMCIgdmlld0JveD0iMCAwIDE0LjUxOTk5OTUwNDA4OTM1NSAyMCI+JiN4YTsJPHN0eWxlIHR5cGU9InRleHQvY3NzIj4mI3hhOwkuc3Qwe2ZpbGwtcnVsZTpldmVub2RkfSYjeGE7CS5zdDF7ZmlsbDojNjY5ZGY2O30mI3hhOwkuc3Qye2ZpbGw6I2FlY2JmYTt9JiN4YTsJLnN0M3tmaWxsOiM0Mjg1ZjQ7fSYjeGE7CTwvc3R5bGU+JiN4YTsJPGcgY2xhc3M9InN0MCI+JiN4YTsJCTxwYXRoIGNsYXNzPSJzdDEiIGQ9Ik03LjM3IDIuMDNsLTEuNzIuOTYgMS41MiAxLjUtLjAyIDEuNzMgMS4wMi4wMS4wMi0xLjczIDQuMjQgMi41Ni0uMDEgMS4wNyAxLjc3LjAzVjYuMTFMOS4wNSAzLjA0bC0uMjctLjk0eiIvPiYjeGE7CQk8cGF0aCBjbGFzcz0ic3QyIiBkPSJNNy4zNiAyLjAzbC0xLjQyLjM1LS4yOS42MUwuMzkgNS45Mi4zNiA3Ljk3IDIuMTQgOGwuMDItMS4wNyA0LjMxLTIuNDUtLjAyIDEuNzMuODYuMDEuMDYtNC4xOXoiLz4mI3hhOwkJPGcgY2xhc3M9InN0MSI+JiN4YTsJCQk8cGF0aCBkPSJNNy4zNiAyLjAzTDMuOTUgMCAyLjIxLjk1bDMuNDQgMi4wNCAxLjcyLS45NnptLjcxIDExLjc2bC0xLjcyLS4wMi0uMDIgMS43Mi44MiAyLjQ4IDEuNDItLjEyLjI5LS44NSA1LjI3LTIuOTMuMDMtMi4wOS0xLjc5LS4wMi0uMDIgMS4xLTQuMyAyLjQ1eiIvPiYjeGE7CQkJPHBhdGggZD0iTTcuMTUgMTcuOTdsLTMuNDYgMS45NGgtLjA1bC0xLjY2LS45OSAzLjQ5LTEuOTYgMS42OCAxLjAxeiIvPiYjeGE7CQk8L2c+JiN4YTsJCTxwYXRoIGNsYXNzPSJzdDMiIGQ9Ik0xMC44OC4wOWgtLjA1TDcuMzcgMi4wM2wxLjY4IDEuMDEgMy40OS0xLjk2ek0xMC42MiAyMGgtLjA1bC0zLjQyLTIuMDNoMCAwIDBsMS43Mi0uOTYgMy40NCAyLjA0eiIvPiYjeGE7CQk8cGF0aCBjbGFzcz0ic3QyIiBkPSJNLjMzIDEzLjg5di0yaDEuNzZsLS4wMSAxLjA0IDQuMjUgMi41Ni4wMi0xLjcyLjg2LjAxLS4wNiA0LjE4LTEuNjgtMXoiLz4mI3hhOwk8L2c+JiN4YTsJPGNpcmNsZSBjbGFzcz0ic3QyIiBjeD0iMTMuMzgiIGN5PSIxMC4wNCIgcj0iMS4xNCIvPiYjeGE7CTxjaXJjbGUgY2xhc3M9InN0MiIgY3g9IjEuMTQiIGN5PSI5Ljg4IiByPSIxLjE0Ii8+JiN4YTsJPGNpcmNsZSBjbGFzcz0ic3QyIiBjeD0iNy4zMiIgY3k9IjcuOTkiIHI9IjEuMTQiLz4mI3hhOwk8Y2lyY2xlIGNsYXNzPSJzdDIiIGN4PSI3LjIzIiBjeT0iMTIiIHI9IjEuMTQiLz4mI3hhOzwvc3ZnPg==;" vertex="1" parent="1">
          <mxGeometry x="304.5" y="377" width="31" height="42" as="geometry" />
        </mxCell>
        <mxCell id="2iuqWAaq_DwEEDqG-BNT-14" value="Streaming pipeline" style="text;html=1;align=center;verticalAlign=middle;resizable=0;points=[];autosize=1;strokeColor=none;fillColor=none;" vertex="1" parent="1">
          <mxGeometry x="260" y="427" width="120" height="30" as="geometry" />
        </mxCell>
        <mxCell id="2iuqWAaq_DwEEDqG-BNT-31" style="edgeStyle=orthogonalEdgeStyle;rounded=0;orthogonalLoop=1;jettySize=auto;html=1;exitX=0;exitY=0.5;exitDx=0;exitDy=0;" edge="1" parent="1" source="2iuqWAaq_DwEEDqG-BNT-15" target="2iuqWAaq_DwEEDqG-BNT-23">
          <mxGeometry relative="1" as="geometry" />
        </mxCell>
        <mxCell id="2iuqWAaq_DwEEDqG-BNT-15" value="Cloud&#xa;Storage" style="sketch=0;html=1;verticalAlign=top;labelPosition=center;verticalLabelPosition=bottom;align=center;spacingTop=-6;fontSize=11;fontStyle=1;fontColor=#999999;shape=image;aspect=fixed;imageAspect=0;image=data:image/svg+xml,PHN2ZyB4bWxucz0iaHR0cDovL3d3dy53My5vcmcvMjAwMC9zdmciIHhtbG5zOnY9Imh0dHBzOi8vdmVjdGEuaW8vbmFubyIgd2lkdGg9IjIwIiBoZWlnaHQ9IjE2IiB2aWV3Qm94PSIwIDAgMjAgMTYiPiYjeGE7CTxzdHlsZSB0eXBlPSJ0ZXh0L2NzcyI+JiN4YTsJLnN0MHtmaWxsOiM0Mjg1ZjQ7fSYjeGE7CS5zdDF7ZmlsbDojNjY5ZGY2O30mI3hhOwkuc3Qye2ZpbGw6I2FlY2JmYTt9JiN4YTsJLnN0M3tmaWxsOiNmZmY7fSYjeGE7CTwvc3R5bGU+JiN4YTsJPHBhdGggY2xhc3M9InN0MiIgZD0iTTAgMGgyMHY3SDB6Ii8+JiN4YTsJPHBhdGggY2xhc3M9InN0MSIgZD0iTTE4IDBoMnY3aC0yeiIvPiYjeGE7CTxwYXRoIGNsYXNzPSJzdDAiIGQ9Ik0xOCA3bDItN2gtMnoiLz4mI3hhOwk8cGF0aCBjbGFzcz0ic3QxIiBkPSJNMCAwaDJ2N0gweiIvPiYjeGE7CTxnIGNsYXNzPSJzdDMiPiYjeGE7CQk8cGF0aCBkPSJNNCAzaDZ2MUg0eiIvPiYjeGE7CQk8cmVjdCB4PSIxMyIgeT0iMiIgd2lkdGg9IjMiIGhlaWdodD0iMyIgcng9IjEuNSIvPiYjeGE7CTwvZz4mI3hhOwk8cGF0aCBjbGFzcz0ic3QyIiBkPSJNMCA5aDIwdjdIMHoiLz4mI3hhOwk8cGF0aCBjbGFzcz0ic3QxIiBkPSJNMTggOWgydjdoLTJ6Ii8+JiN4YTsJPHBhdGggY2xhc3M9InN0MCIgZD0iTTE4IDE2bDItN2gtMnoiLz4mI3hhOwk8cGF0aCBjbGFzcz0ic3QxIiBkPSJNMCA5aDJ2N0gweiIvPiYjeGE7CTxnIGNsYXNzPSJzdDMiPiYjeGE7CQk8cGF0aCBkPSJNNCAxMmg2djFINHoiLz4mI3hhOwkJPHJlY3QgeD0iMTMiIHk9IjExIiB3aWR0aD0iMyIgaGVpZ2h0PSIzIiByeD0iMS41Ii8+JiN4YTsJPC9nPiYjeGE7PC9zdmc+;" vertex="1" parent="1">
          <mxGeometry x="618" y="726" width="42" height="34" as="geometry" />
        </mxCell>
        <mxCell id="2iuqWAaq_DwEEDqG-BNT-16" value="" style="group" vertex="1" connectable="0" parent="1">
          <mxGeometry x="40" y="720" width="80" height="72" as="geometry" />
        </mxCell>
        <mxCell id="2iuqWAaq_DwEEDqG-BNT-17" value="" style="shape=image;verticalLabelPosition=bottom;labelBackgroundColor=default;verticalAlign=top;aspect=fixed;imageAspect=0;image=data:image/png,iVBORw0KGgoAAAANSUhEUgAAAgIAAAHsCAYAAACg48WjAAAAAXNSR0IB2cksfwAAAAlwSFlzAAAWJQAAFiUBSVIk8AAAH2ZJREFUeAHt29mPZEV2B+DIWrq6uuluGGhWM+ARMIulAYkX+8nvlvxH+l/ws/1szYPHlj0evBvbMyMzgNh7qa6q9Lld9FhIlghCFXXzRHxXSlUDNyLP+c7tzF/eLDbbOIqDAAECBAgQmFJgb8quNU2AAAECBAg8FhAEXAgECBAgQGBiAUFg4uFrnQABAgQICAKuAQIECBAgMLGAIDDx8LVOgAABAgQEAdcAAQIECBCYWEAQmHj4WidAgAABAoKAa4AAAQIECEwsIAhMPHytEyBAgAABQcA1QIAAAQIEJhYQBCYevtYJECBAgIAg4BogQIAAAQITCwgCEw9f6wQIECBAQBBwDRAgQIAAgYkFBIGJh691AgQIECAgCLgGCBAgQIDAxAKCwMTD1zoBAgQIEBAEXAMECBAgQGBiAUFg4uFrnQABAgQICAKuAQIECBAgMLGAIDDx8LVOgAABAgQEAdcAAQIECBCYWEAQmHj4WidAgAABAoKAa4AAAQIECEwsIAhMPHytEyBAgAABQcA1QIAAAQIEJhYQBCYevtYJECBAgIAg4BogQIAAAQITCwgCEw9f6wQIECBAQBBwDRAgQIAAgYkFBIGJh691AgQIECAgCLgGCBAgQIDAxAKCwMTD1zoBAgQIEBAEXAMECBAgQGBiAUFg4uFrnQABAgQICAKuAQIECBAgMLGAIDDx8LVOgAABAgQEAdcAAQIECBCYWEAQmHj4WidAgAABAoKAa4AAAQIECEwsIAhMPHytEyBAgAABQcA1QIAAAQIEJhYQBCYevtYJECBAgIAg4BogQIAAAQITCwgCEw9f6wQIECBAQBBwDRAgQIAAgYkFBIGJh691AgQIECAgCLgGCBAgQIDAxAKCwMTD1zoBAgQIEBAEXAMECBAgQGBiAUFg4uFrnQABAgQICAKuAQIECBAgMLGAIDDx8LVOgAABAgQEAdcAAQIECBCYWEAQmHj4WidAgAABAoKAa4AAAQIECEwsIAhMPHytEyBAgAABQcA1QIAAAQIEJhYQBCYevtYJECBAgIAg4BogQIAAAQITCwgCEw9f6wQIECBAQBBwDRAgQIAAgYkFBIGJh691AgQIECAgCLgGCBAgQIDAxAKCwMTD1zoBAgQIEBAEXAMECBAgQGBiAUFg4uFrnQABAgQICAKuAQIECBAgMLGAIDDx8LVOgAABAgQEAdcAAQIECBCYWEAQmHj4WidAgAABAoKAa4AAAQIECEwsIAhMPHytEyBAgAABQcA1QIAAAQIEJhYQBCYevtYJECBAgIAg4BogQIAAAQITCwgCEw9f6wQIECBAQBBwDRAgQIAAgYkFBIGJh691AgQIECAgCLgGCBAgQIDAxAKCwMTD1zoBAgQIEBAEXAMECBAgQGBiAUFg4uFrnQABAgQICAKuAQIECBAgMLGAIDDx8LVOgAABAgQEAdcAAQIECBCYWEAQmHj4WidAgAABAoKAa4AAAQIECEwsIAhMPHytEyBAgAABQcA1QIAAAQIEJhYQBCYevtYJECBAgIAg4BogQIAAAQITCwgCEw9f6wQIECBAQBBwDRAgQIAAgYkFDibuPX/r29NStg9KOfs8Hh+Xcn5v3Z72b5Vy8HIpe/Fzs2TMzbr1nH1WyqP3w+aLKGU/alk59+4dl7J/J8pYHjejpsN1fc6/KuX0t3HdhM/2JB5n69TzO5fb4fLUDrnE36vto/VcnkxjuXY3R3HthM/+3TC68eS/+EngUgQEgUthXGmTJQQ8+k0p9/+hlK9+Fn/+1UqFfP20R2+W8vSflHL0k/gX179+812xpCUEfPRnpTx4L15Al3BybcVi4qkPXijlxjulHP+olGthtf/0uvUsIeDzvwyfX0ZY+vQiDKxR0WOXt8Plx+HyRrg8s0YV//ecj13+4uK6WdPlSUWPg9Kz8Vcq/l7d/uMIAq89+S9+ErgUAUHgUhhX2mT5BLeEgeWF6/7PS7n3i5UK+fppb3wYL+S/d/Fp9/DVeOONN981j/P7F+Hody4rfeJ9YnA93vwP4hPd0fdjbqdP/u16P5c7Jvf/tpQv/yqCQPx5rTtKR3GtbB+GQ3zyPXhx/SCw3B05/biUh/8Wj3+/+PN6U7q4Zo5/WMphBMmlNgeBSxYQBC4Z9Eq328T4ntxiXl7ElxfzNY+H/xV3JuJNZbnlfStufS9fEax5LM9/FC+gjz6IT3fxgr62z/Iivh8uy9cDa38tsMxluWaWu0gn78cbTISk5Tb4GseSAR7f+o47JDfizsASItc8llvvS6A9iTfeB/+8/nWz3CE5eD5cXgmnqM1B4JIFBIFLBr3a7eI7+OV29xIIlhfx5RPwmsfyewon/x1vLr+OWuJOxdrH3lG8gD4Xj7itWiIIrO1zHkFgmdVm+dpk5d9XeDybuGaW3584/WTdSS2h6NH/XNzZ2oVPvMuMlu/jl99XKBGQ1r5uyvlF4H/8uzdeste9WMd89l14NRpTVlcECBAgQCCBgCCQYEhKJECAAAECvQQEgV6y9iVAgAABAgkEBIEEQ1IiAQIECBDoJSAI9JK1LwECBAgQSCAgCCQYkhIJECBAgEAvAUGgl6x9CRAgQIBAAgFBIMGQlEiAAAECBHoJCAK9ZO1LgAABAgQSCAgCCYakRAIECBAg0EtAEOgla18CBAgQIJBAQBBIMCQlEiBAgACBXgKCQC9Z+xIgQIAAgQQCgkCCISmRAAECBAj0EhAEesnalwABAgQIJBAQBBIMSYkECBAgQKCXgCDQS9a+BAgQIEAggYAgkGBISiRAgAABAr0EBIFesvYlQIAAAQIJBASBBENSIgECBAgQ6CUgCPSStS8BAgQIEEggIAgkGJISCRAgQIBALwFBoJesfQkQIECAQAIBQSDBkJRIgAABAgR6CQgCvWTtS4AAAQIEEggIAgmGpEQCBAgQINBLQBDoJWtfAgQIECCQQEAQSDAkJRIgQIAAgV4CgkAvWfsSIECAAIEEAoJAgiEpkQABAgQI9BIQBHrJ2pcAAQIECCQQEAQSDEmJBAgQIECgl4Ag0EvWvgQIECBAIIGAIJBgSEokQIAAAQK9BASBXrL2JUCAAAECCQQEgQRDUiIBAgQIEOglIAj0krUvAQIECBBIICAIJBiSEgkQIECAQC8BQaCXrH0JECBAgEACAUEgwZCUSIAAAQIEegkIAr1k7UuAAAECBBIICAIJhqREAgQIECDQS0AQ6CVrXwIECBAgkEBAEEgwJCUSIECAAIFeAoJAL1n7EiBAgACBBAKCQIIhKZEAAQIECPQSEAR6ydqXAAECBAgkEBAEEgxJiQQIECBAoJeAINBL1r4ECBAgQCCBgCCQYEhKJECAAAECvQQEgV6y9iVAgAABAgkEBIEEQ1IiAQIECBDoJSAI9JK1LwECBAgQSCAgCCQYkhIJECBAgEAvAUGgl6x9CRAgQIBAAgFBIMGQlEiAAAECBHoJCAK9ZO1LgAABAgQSCAgCCYakRAIECBAg0EtAEOgla18CBAgQIJBAQBBIMCQlEiBAgACBXgKCQC9Z+xIgQIAAgQQCgkCCISmRAAECBAj0EhAEesnalwABAgQIJBAQBBIMSYkECBAgQKCXgCDQS9a+BAgQIEAggYAgkGBISiRAgAABAr0EBIFesvYlQIAAAQIJBASBBENSIgECBAgQ6CUgCPSStS8BAgQIEEggIAgkGJISCRAgQIBALwFBoJesfQkQIECAQAIBQSDBkJRIgAABAgR6CQgCvWTtS4AAAQIEEggIAgmGpEQCBAgQINBLQBDoJWtfAgQIECCQQEAQSDAkJRIgQIAAgV4CgkAvWfsSIECAAIEEAoJAgiEpkQABAgQI9BIQBHrJ2pcAAQIECCQQEAQSDEmJBAgQIECgl4Ag0EvWvgQIECBAIIGAIJBgSEokQIAAAQK9BASBXrL2JUCAAAECCQQEgQRDUiIBAgQIEOglIAj0krUvAQIECBBIICAIJBiSEgkQIECAQC8BQaCXrH0JECBAgEACAUEgwZCUSIAAAQIEegkIAr1k7UuAAAECBBIICAIJhqREAgQIECDQS0AQ6CVrXwIECBAgkEBAEEgwJCUSIECAAIFeAoJAL1n7EiBAgACBBAKCQIIhKZEAAQIECPQSEAR6ydqXAAECBAgkEBAEEgxJiQQIECBAoJeAINBL1r4ECBAgQCCBgCCQYEhKJECAAAECvQQEgV6y9iVAgAABAgkEBIEEQ1IiAQIECBDoJSAI9JK1LwECBAgQSCAgCCQYkhIJECBAgEAvAUGgl6x9CRAgQIBAAgFBIMGQlEiAAAECBHoJCAK9ZO1LgAABAgQSCAgCCYakRAIECBAg0EtAEOgla18CBAgQIJBAQBBIMCQlEiBAgACBXgKCQC9Z+xIgQIAAgQQCgkCCISmRAAECBAj0EhAEesnalwABAgQIJBAQBBIMSYkECBAgQKCXgCDQS9a+BAgQIEAggYAgkGBISiRAgAABAr0EBIFesvYlQIAAAQIJBASBBENSIgECBAgQ6CUgCPSStS8BAgQIEEggcJCgRiUSIECAwK4IbB+Vcv5VPL4s5ezTUrYP1qlsc1jK5nope7dK2X8mfh6vU8cAzyoIDDBELRAgQODKBJYQcPIfpdz/p1Ie/H0pjz64sqf+xhPt3yzl4KVSrr9Vys0/FAS+gfPd/kEQ+G5eziZAgMDcAsudgPvvlXLvZ/H4mwgFv1nHY7kTcO3FuCPxsJTjH0UNL69TxwDPKggMMEQtECBA4MoEzj6JOwF/FyHgr0t5+H58PRDBYI1jE3WcfRh3BeJrgbMv1qhgmOcUBIYZpUYIECBwBQLL7wQsXwcsdwLOPo5HfCJf49hs4/cU4i3sNGpY7go4mgX8XwPNdBYSIECAAIH8AoJA/hnqgAABAgQINAsIAs10FhIgQIAAgfwCgkD+GeqAAAECBAg0CwgCzXQWEiBAgACB/AKCQP4Z6oAAAQIECDQLCALNdBYSIECAAIH8AoJA/hnqgAABAgQINAsIAs10FhIgQIAAgfwCgkD+GeqAAAECBAg0CwgCzXQWEiBAgACB/AKCQP4Z6oAAAQIECDQLCALNdBYSIECAAIH8AoJA/hnqgAABAgQINAsIAs10FhIgQIAAgfwCgkD+GeqAAAECBAg0CwgCzXQWEiBAgACB/AKCQP4Z6oAAAQIECDQLCALNdBYSIECAAIH8AoJA/hnqgAABAgQINAsIAs10FhIgQIAAgfwCgkD+GeqAAAECBAg0CwgCzXQWEiBAgACB/AKCQP4Z6oAAAQIECDQLCALNdBYSIECAAIH8AoJA/hnqgAABAgQINAsIAs10FhIgQIAAgfwCgkD+GeqAAAECBAg0CwgCzXQWEiBAgACB/AKCQP4Z6oAAAQIECDQLCALNdBYSIECAAIH8AoJA/hnqgAABAgQINAsIAs10FhIgQIAAgfwCgkD+GeqAAAECBAg0CwgCzXQWEiBAgACB/AKCQP4Z6oAAAQIECDQLCALNdBYSIECAAIH8AoJA/hnqgAABAgQINAsIAs10FhIgQIAAgfwCgkD+GeqAAAECBAg0CwgCzXQWEiBAgACB/AKCQP4Z6oAAAQIECDQLCALNdBYSIECAAIH8AoJA/hnqgAABAgQINAsIAs10FhIgQIAAgfwCgkD+GeqAAAECBAg0CwgCzXQWEiBAgACB/AIH+VvQAQECBAhcmcDmqJSDZ0s5vFvK+ZelbFf6PLk5LGXvWin7d0pZ/uxoFhAEmuksJECAwIQCe7dKOXqrlNOPIgicBMAH6yDs3YgwsgSSVyIQxJ8dzQKCQDOdhQQIEJhQYAkCxz+Mxs/iDfh2BIIP10HYO447E8+Vcv3HUUfcFXA0CwgCzXQWEiBAYEKB/eWOwB/EJ/FXS7n5R/HVwMN1EDb78ZVAfDWwhJGD59epYZBnFQQGGaQ2CBAgcCUCj39HIH5PoMSncccQAiv9lscQdpogQIAAAQLpBQSB9CPUAAECBAgQaBcQBNrtrCRAgAABAukFBIH0I9QAAQIECBBoFxAE2u2sJECAAAEC6QUEgfQj1AABAgQIEGgXEATa7awkQIAAAQLpBQSB9CPUAAECBAgQaBcQBNrtrCRAgAABAukFBIH0I9QAAQIECBBoFxAE2u2sJECAAAEC6QUEgfQj1AABAgQIEGgXEATa7awkQIAAAQLpBQSB9CPUAAECBAgQaBcQBNrtrCRAgAABAukFBIH0I9QAAQIECBBoFxAE2u2sJECAAAEC6QUEgfQj1AABAgQIEGgXEATa7awkQIAAAQLpBQSB9CPUAAECBAgQaBcQBNrtrCRAgAABAukFBIH0I9QAAQIECBBoFxAE2u2sJECAAAEC6QUEgfQj1AABAgQIEGgXEATa7awkQIAAAQLpBQSB9CPUAAECBAgQaBcQBNrtrCRAgAABAukFBIH0I9QAAQIECBBoFxAE2u2sJECAAAEC6QUEgfQj1AABAgQIEGgXEATa7awkQIAAAQLpBQSB9CPUAAECBAgQaBcQBNrtrCRAgAABAukFBIH0I9QAAQIECBBoFxAE2u2sJECAAAEC6QUEgfQj1AABAgQIEGgXEATa7awkQIAAAQLpBQSB9CPUAAECBAgQaBcQBNrtrCRAgAABAukFBIH0I9QAAQIECBBoFxAE2u2sJECAAAEC6QUEgfQj1AABAgQIEGgXEATa7awkQIAAAQLpBQSB9CPUAAECBAgQaBcQBNrtrCRAgAABAukFBIH0I9QAAQIECBBoFxAE2u2sJECAAAEC6QUEgfQj1AABAgQIEGgXEATa7awkQIAAAQLpBQSB9CPUAAECBAgQaBcQBNrtrCRAgAABAukFBIH0I9QAAQIECBBoFxAE2u2sJECAAAEC6QUEgfQj1AABAgQIEGgXEATa7awkQIAAAQLpBQSB9CPUAAECBAgQaBcQBNrtrCRAgAABAukFBIH0I9QAAQIECBBoFxAE2u2sJECAAAEC6QUEgfQj1AABAgQIEGgXEATa7awkQIAAAQLpBQSB9CPUAAECBAgQaBcQBNrtrCRAgAABAukFBIH0I9QAAQIECBBoFxAE2u2sJECAAAEC6QUEgfQj1AABAgQIEGgXEATa7awkQIAAAQLpBQSB9CPUAAECBAgQaBcQBNrtrCRAgAABAukFBIH0I9QAAQIECBBoFxAE2u2sJECAAAEC6QUEgfQj1AABAgQIEGgXEATa7awkQIAAAQLpBQSB9CPUAAECBAgQaBcQBNrtrCRAgAABAukFBIH0I9QAAQIECBBoFxAE2u2sJECAAAEC6QUEgfQj1AABAgQIEGgXEATa7awkQIAAAQLpBQSB9CPUAAECBAgQaBcQBNrtrCRAgAABAukFDtJ3MHMD2/NSzh7E41Ep59dK2dxYV2P7dCmnd0t59Gwp28N1a/HsBAgQIFAlIAhUMe3oSdvTUh5+UcpJhIHz4yjymXULPXu5lK9+UsreGxEIbq1bi2cnQIAAgSoBQaCKaUdPihsC5SQeH8fjX7alfBKPNY+DTSnXo4CX4vG9qOWpNYvx3AQIECBQIyAI1Cjt6jnnMb6T26X8Z9wN+PP7pfzik3UrffbXpfzgl6W8G18NfP/1Up57ft16PDsBAgQIfKuAIPCtRDt8wnY/fj8gfjfg0xjje3Fr4OfxFcGax93P4vcUPizl9QgkJ/F7Cw4CBAgQ2HkB/9fAzo9IgQQIECBAoJ+AINDP1s4ECBAgQGDnBQSBnR+RAgkQIECAQD8BQaCfrZ0JECBAgMDOCwgCOz8iBRIgQIAAgX4CgkA/WzsTIECAAIGdFxAEdn5ECiRAgAABAv0EBIF+tnYmQIAAAQI7LyAI7PyIFEiAAAECBPoJCAL9bO1MgAABAgR2XkAQ2PkRKZAAAQIECPQTEAT62dqZAAECBAjsvIAgsPMjUiABAgQIEOgnIAj0s7UzAQIECBDYeQFBYOdHpEACBAgQINBPQBDoZ2tnAgQIECCw8wKCwM6PSIEECBAgQKCfgCDQz9bOBAgQIEBg5wUEgZ0fkQIJECBAgEA/AUGgn62dCRAgQIDAzgsIAjs/IgUSIECAAIF+AoJAP1s7EyBAgACBnRcQBHZ+RAokQIAAAQL9BASBfrZ2JkCAAAECOy8gCOz8iBRIgAABAgT6CQgC/WztTIAAAQIEdl5AENj5ESmQAAECBAj0ExAE+tnamQABAgQI7LyAILDzI1IgAQIECBDoJyAI9LO1MwECBAgQ2HkBQWDnR6RAAgQIECDQT+Cg39Z27i5wfl7KycnFYy8y3f7Kue72U6W89FIpzz9fytFR9/a/9Qm24bN9dHHawdPx8+xbl3Q94fDZ2P7w6zq2XZ+qavO9WzGnN0s5/qiU8y/i8aBq2aWftInrdpnV8vzb00vf/jtvuI3ZLNfNUtdBzOzwy++8xaUuOHgmtlv+bi824eQgcMkCgsAlg17pdo/iheGLeAG/fz9esPZLeSreiNc8XnixlHfeKeWnPy3lzvLGu/YRPudfRRGbeMP7QTxeW7ega6/G6/n1ize75c1m7ePw5ZjTn5Zy7fVSHv5jvM9EIFjjOPs8nv9XkdM+u3gDXqOGbzxnBMYllGzi5fHo9y/CwDf++xX/w34EgU0EyPOH4SMIXLH+FE8nCGQe83IX4DjeWJY34HffLeXu3XW7efOtUt5+u5TX4g335o11a1mefXMcn+ZeiT/EC/sm6lle2Nc8lk921+LNd+9m1BLBbe1j704pNyK4HX4vwuQLEQQ+Xqeis0+ihn8NmwhK+3GXYu1jcy3e/OPv0tEb8TPucD25q7RWXXtxd23v9sWcltocBC5ZYLON45L3tN1VCZzGJ957cTfg8/gk9VF8mrt376qe+f9/nuWOxPLVwJ14gzmIN90lqKx5LHcDTn8bL+SLyxIC4s7AmsfyIr6EgL0IKJsIcGsHk20EpG18tbT4nMft7+UT5xrHUsPy/HsR1g4jRO7H9bPmsY27AcvdifPlulmMVv4UvoTG5VpZwux+BILNDnzttuZ8PPelCwgCl05qQwIECBAgkEdg5Y9seaBUSoAAAQIERhQQBEacqp4IECBAgEClgCBQCeU0AgQIECAwooAgMOJU9USAAAECBCoFBIFKKKcRIECAAIERBQSBEaeqJwIECBAgUCkgCFRCOY0AAQIECIwoIAiMOFU9ESBAgACBSgFBoBLKaQQIECBAYEQBQWDEqeqJAAECBAhUCggClVBOI0CAAAECIwoIAiNOVU8ECBAgQKBSQBCohHIaAQIECBAYUUAQGHGqeiJAgAABApUCgkAllNMIECBAgMCIAoLAiFPVEwECBAgQqBQQBCqhnEaAAAECBEYUEARGnKqeCBAgQIBApYAgUAnlNAIECBAgMKKAIDDiVPVEgAABAgQqBQSBSiinESBAgACBEQUEgRGnqicCBAgQIFApIAhUQjmNAAECBAiMKCAIjDhVPREgQIAAgUoBQaASymkECBAgQGBEAUFgxKnqiQABAgQIVAoIApVQTiNAgAABAiMKCAIjTlVPBAgQIECgUkAQqIRyGgECBAgQGFFAEBhxqnoiQIAAAQKVAoJAJZTTCBAgQIDAiAKCwIhT1RMBAgQIEKgUEAQqoZxGgAABAgRGFBAERpyqnggQIECAQKWAIFAJ5TQCBAgQIDCigCAw4lT1RIAAAQIEKgUEgUoopxEgQIAAgREFBIERp6onAgQIECBQKSAIVEI5jQABAgQIjCggCIw4VT0RIECAAIFKAUGgEsppBAgQIEBgRAFBYMSp6okAAQIECFQKCAKVUE4jQIAAAQIjCggCI05VTwQIECBAoFJAEKiEchoBAgQIEBhRQBAYcap6IkCAAAEClQKCQCWU0wgQIECAwIgCgsCIU9UTAQIECBCoFBAEKqGcRoAAAQIERhQQBEacqp4IECBAgEClgCBQCeU0AgQIECAwooAgMOJU9USAAAECBCoFBIFKKKcRIECAAIERBQSBEaeqJwIECBAgUCkgCFRCOY0AAQIECIwoIAiMOFU9ESBAgACBSgFBoBLKaQQIECBAYEQBQWDEqeqJAAECBAhUCggClVBOI0CAAAECIwoIAiNOVU8ECBAgQKBSQBCohHIaAQIECBAYUUAQGHGqeiJAgAABApUCgkAllNMIECBAgMCIAoLAiFPVEwECBAgQqBQQBCqhnEaAAAECBEYUEARGnKqeCBAgQIBApYAgUAnlNAIECBAgMKKAIDDiVPVEgAABAgQqBQSBSiinESBAgACBEQUEgRGnqicCBAgQIFApIAhUQjmNAAECBAiMKCAIjDhVPREgQIAAgUoBQaASymkECBAgQGBEAUFgxKnqiQABAgQIVAoIApVQTiNAgAABAiMKCAIjTlVPBAgQIECgUkAQqIRyGgECBAgQGFFAEBhxqnoiQIAAAQKVAoJAJZTTCBAgQIDAiAKCwIhT1RMBAgQIEKgUEAQqoZxGgAABAgRGFBAERpyqnggQIECAQKWAIFAJ5TQCBAgQIDCigCAw4lT1RIAAAQIEKgUEgUoopxEgQIAAgREFBIERp6onAgQIECBQKSAIVEI5jQABAgQIjCggCIw4VT0RIECAAIFKAUGgEsppBAgQIEBgRAFBYMSp6okAAQIECFQKCAKVUE4jQIAAAQIjCggCI05VTwQIECBAoFJAEKiEchoBAgQIEBhRQBAYcap6IkCAAAEClQKCQCWU0wgQIECAwIgCgsCIU9UTAQIECBCoFPhfx8a2CyChpKIAAAAASUVORK5CYII=;" vertex="1" parent="2iuqWAaq_DwEEDqG-BNT-16">
          <mxGeometry x="13.060000000000002" width="53.88" height="51.57" as="geometry" />
        </mxCell>
        <mxCell id="2iuqWAaq_DwEEDqG-BNT-18" value="ClickHouse" style="text;html=1;align=center;verticalAlign=middle;resizable=0;points=[];autosize=1;strokeColor=none;fillColor=none;" vertex="1" parent="2iuqWAaq_DwEEDqG-BNT-16">
          <mxGeometry y="42" width="80" height="30" as="geometry" />
        </mxCell>
        <mxCell id="2iuqWAaq_DwEEDqG-BNT-19" value="" style="image;aspect=fixed;html=1;points=[];align=center;fontSize=12;image=img/lib/azure2/analytics/Power_BI_Embedded.svg;" vertex="1" parent="1">
          <mxGeometry x="60" y="853" width="40" height="53.33" as="geometry" />
        </mxCell>
        <mxCell id="2iuqWAaq_DwEEDqG-BNT-20" value="BI/Dashboarding" style="text;html=1;align=center;verticalAlign=middle;resizable=0;points=[];autosize=1;strokeColor=none;fillColor=none;" vertex="1" parent="1">
          <mxGeometry x="40" y="906.33" width="110" height="30" as="geometry" />
        </mxCell>
        <mxCell id="2iuqWAaq_DwEEDqG-BNT-21" value="" style="edgeStyle=orthogonalEdgeStyle;rounded=0;orthogonalLoop=1;jettySize=auto;html=1;" edge="1" parent="1" source="2iuqWAaq_DwEEDqG-BNT-18" target="2iuqWAaq_DwEEDqG-BNT-19">
          <mxGeometry relative="1" as="geometry" />
        </mxCell>
        <UserObject label="C:\Users\yashb\OneDrive\Desktop\code\idfy_assignment\idfy_assignment\diagrams\IDfy Service Diagram.drawio" link="C:\Users\yashb\OneDrive\Desktop\code\idfy_assignment\idfy_assignment\diagrams\IDfy Service Diagram.drawio" id="2iuqWAaq_DwEEDqG-BNT-22">
          <mxCell style="text;whiteSpace=wrap;html=1;" vertex="1" parent="1">
            <mxGeometry x="100" y="20" width="560" height="50" as="geometry" />
          </mxCell>
        </UserObject>
        <mxCell id="2iuqWAaq_DwEEDqG-BNT-35" style="edgeStyle=orthogonalEdgeStyle;rounded=0;orthogonalLoop=1;jettySize=auto;html=1;exitX=0.5;exitY=1;exitDx=0;exitDy=0;entryX=0.5;entryY=0;entryDx=0;entryDy=0;" edge="1" parent="1" source="2iuqWAaq_DwEEDqG-BNT-24" target="2iuqWAaq_DwEEDqG-BNT-25">
          <mxGeometry relative="1" as="geometry" />
        </mxCell>
        <mxCell id="2iuqWAaq_DwEEDqG-BNT-24" value="read from pub/sub" style="rounded=1;whiteSpace=wrap;html=1;" vertex="1" parent="1">
          <mxGeometry x="265" y="460" width="110" height="40" as="geometry" />
        </mxCell>
        <mxCell id="2iuqWAaq_DwEEDqG-BNT-36" style="edgeStyle=orthogonalEdgeStyle;rounded=0;orthogonalLoop=1;jettySize=auto;html=1;exitX=0.5;exitY=1;exitDx=0;exitDy=0;" edge="1" parent="1" source="2iuqWAaq_DwEEDqG-BNT-25" target="2iuqWAaq_DwEEDqG-BNT-26">
          <mxGeometry relative="1" as="geometry" />
        </mxCell>
        <mxCell id="2iuqWAaq_DwEEDqG-BNT-25" value="parse data" style="rounded=1;whiteSpace=wrap;html=1;" vertex="1" parent="1">
          <mxGeometry x="270" y="515" width="100" height="30" as="geometry" />
        </mxCell>
        <mxCell id="2iuqWAaq_DwEEDqG-BNT-38" style="edgeStyle=orthogonalEdgeStyle;rounded=0;orthogonalLoop=1;jettySize=auto;html=1;exitX=0.5;exitY=1;exitDx=0;exitDy=0;entryX=0.5;entryY=0;entryDx=0;entryDy=0;" edge="1" parent="1" source="2iuqWAaq_DwEEDqG-BNT-26" target="2iuqWAaq_DwEEDqG-BNT-27">
          <mxGeometry relative="1" as="geometry" />
        </mxCell>
        <mxCell id="2iuqWAaq_DwEEDqG-BNT-26" value="normalize data" style="rounded=1;whiteSpace=wrap;html=1;" vertex="1" parent="1">
          <mxGeometry x="272.5" y="562" width="95" height="30" as="geometry" />
        </mxCell>
        <mxCell id="2iuqWAaq_DwEEDqG-BNT-40" style="edgeStyle=orthogonalEdgeStyle;rounded=0;orthogonalLoop=1;jettySize=auto;html=1;exitX=1;exitY=0.5;exitDx=0;exitDy=0;" edge="1" parent="1" source="2iuqWAaq_DwEEDqG-BNT-27" target="2iuqWAaq_DwEEDqG-BNT-28">
          <mxGeometry relative="1" as="geometry" />
        </mxCell>
        <mxCell id="2iuqWAaq_DwEEDqG-BNT-41" style="edgeStyle=orthogonalEdgeStyle;rounded=0;orthogonalLoop=1;jettySize=auto;html=1;exitX=0;exitY=0.5;exitDx=0;exitDy=0;" edge="1" parent="1" source="2iuqWAaq_DwEEDqG-BNT-27" target="2iuqWAaq_DwEEDqG-BNT-29">
          <mxGeometry relative="1" as="geometry" />
        </mxCell>
        <mxCell id="2iuqWAaq_DwEEDqG-BNT-27" value="dedup based on event_id" style="rounded=1;whiteSpace=wrap;html=1;" vertex="1" parent="1">
          <mxGeometry x="235" y="610" width="175" height="40" as="geometry" />
        </mxCell>
        <mxCell id="2iuqWAaq_DwEEDqG-BNT-28" value="save to cloud storage" style="rounded=1;whiteSpace=wrap;html=1;" vertex="1" parent="1">
          <mxGeometry x="370" y="680" width="150" height="40" as="geometry" />
        </mxCell>
        <mxCell id="2iuqWAaq_DwEEDqG-BNT-29" value="upload to clickhouse" style="rounded=1;whiteSpace=wrap;html=1;" vertex="1" parent="1">
          <mxGeometry x="130" y="680" width="150" height="40" as="geometry" />
        </mxCell>
        <mxCell id="2iuqWAaq_DwEEDqG-BNT-34" style="edgeStyle=orthogonalEdgeStyle;rounded=0;orthogonalLoop=1;jettySize=auto;html=1;exitX=0.5;exitY=0;exitDx=0;exitDy=0;" edge="1" parent="1" source="2iuqWAaq_DwEEDqG-BNT-17" target="2iuqWAaq_DwEEDqG-BNT-23">
          <mxGeometry relative="1" as="geometry" />
        </mxCell>
      </root>
    </mxGraphModel>
  </diagram>
</mxfile>
